<?xml version="1.0" encoding="UTF-8"?>
<svg xmlns="http://www.w3.org/2000/svg" xmlns:xlink="http://www.w3.org/1999/xlink" width="180px" height="180px" viewBox="0 0 180 180" version="1.1">
<g id="surface1">
<path style=" stroke:none;fill-rule:nonzero;fill:rgb(7.45098%,66.666667%,32.156863%);fill-opacity:1;" d="M 180 90 C 180 139.707031 139.707031 180 90 180 C 40.292969 180 0 139.707031 0 90 C 0 40.292969 40.292969 0 90 0 C 139.707031 0 180 40.292969 180 90 Z M 180 90 "/>
<path style=" stroke:none;fill-rule:nonzero;fill:rgb(100%,100%,100%);fill-opacity:1;" d="M 114.058594 79.003906 C 108.371094 53.914062 94.9375 45.664062 93.492188 42.511719 C 91.910156 40.289062 90.304688 36.335938 90.304688 36.335938 C 90.28125 36.265625 90.238281 36.148438 90.1875 36.035156 C 90.023438 38.257812 89.941406 39.117188 87.835938 41.359375 C 84.582031 43.90625 67.878906 57.921875 66.519531 86.425781 C 65.253906 113.007812 85.726562 128.851562 88.492188 130.871094 L 88.808594 131.09375 L 88.808594 131.074219 C 88.824219 131.207031 89.6875 137.402344 90.292969 143.964844 L 92.460938 143.964844 C 92.96875 139.328125 93.734375 134.71875 94.746094 130.164062 L 94.921875 130.046875 C 96.160156 129.160156 97.339844 128.195312 98.457031 127.15625 L 98.582031 127.042969 C 104.46875 121.605469 115.046875 109.03125 114.945312 88.980469 C 114.921875 85.636719 114.625 82.300781 114.058594 79.003906 Z M 90.0625 115.859375 C 90.0625 115.859375 90.0625 78.574219 91.292969 78.582031 C 92.25 78.582031 93.496094 126.675781 93.496094 126.675781 C 91.785156 126.472656 90.0625 118.761719 90.0625 115.859375 Z M 90.0625 115.859375 "/>
</g>
</svg>
