<?xml version="1.0" encoding="UTF-8"?>
<svg xmlns="http://www.w3.org/2000/svg" xmlns:xlink="http://www.w3.org/1999/xlink" width="180px" height="180px" viewBox="0 0 180 180" version="1.1">
<g id="surface1">
<path style=" stroke:none;fill-rule:nonzero;fill:rgb(100%,42.352941%,21.568627%);fill-opacity:1;" d="M 179.265625 101.429688 C 185.5625 52.117188 150.738281 7.035156 101.519531 0.734375 C 52.296875 -5.5625 7.035156 29.261719 0.734375 78.480469 C -5.5625 127.703125 29.261719 172.875 78.480469 179.265625 C 127.792969 185.5625 172.875 150.738281 179.265625 101.429688 Z M 179.265625 101.429688 "/>
<path style=" stroke:none;fill-rule:nonzero;fill:rgb(100%,100%,100%);fill-opacity:1;" d="M 122.484375 57.785156 L 84.511719 95.757812 L 73.804688 85.050781 C 111.144531 47.707031 114.835938 50.945312 122.484375 57.785156 Z M 122.484375 57.785156 "/>
<path style=" stroke:none;fill-rule:nonzero;fill:rgb(100%,42.352941%,21.568627%);fill-opacity:1;" d="M 84.511719 96.660156 C 84.242188 96.660156 84.0625 96.570312 83.882812 96.390625 L 73.082031 85.679688 C 72.722656 85.320312 72.722656 84.78125 73.082031 84.421875 C 111.054688 46.449219 115.015625 50.046875 123.023438 57.246094 C 123.203125 57.425781 123.292969 57.605469 123.292969 57.875 C 123.292969 58.144531 123.203125 58.324219 123.023438 58.503906 L 85.050781 96.390625 C 84.960938 96.570312 84.691406 96.660156 84.511719 96.660156 Z M 75.0625 85.050781 L 84.511719 94.5 L 121.132812 57.875 C 114.476562 51.9375 109.976562 50.136719 75.0625 85.050781 Z M 75.0625 85.050781 "/>
<path style=" stroke:none;fill-rule:nonzero;fill:rgb(100%,100%,100%);fill-opacity:1;" d="M 95.398438 106.648438 L 85.050781 96.300781 L 123.023438 58.324219 C 133.191406 68.582031 117.984375 85.230469 95.398438 106.648438 Z M 95.398438 106.648438 "/>
<path style=" stroke:none;fill-rule:nonzero;fill:rgb(100%,42.352941%,21.568627%);fill-opacity:1;" d="M 95.398438 107.546875 C 95.128906 107.546875 94.949219 107.457031 94.769531 107.277344 L 84.421875 96.929688 C 84.242188 96.75 84.242188 96.570312 84.242188 96.300781 C 84.242188 96.027344 84.332031 95.847656 84.511719 95.667969 L 122.484375 57.695312 C 122.84375 57.335938 123.382812 57.335938 123.742188 57.695312 C 126.082031 59.855469 127.34375 62.914062 127.253906 66.0625 C 127.074219 76.050781 115.734375 88.738281 96.117188 107.277344 C 95.847656 107.457031 95.578125 107.546875 95.398438 107.546875 Z M 86.3125 96.300781 C 92.070312 102.148438 94.5 104.488281 95.398438 105.386719 C 110.515625 90.988281 125.183594 76.234375 125.273438 66.0625 C 125.363281 63.726562 124.464844 61.386719 122.933594 59.585938 Z M 86.3125 96.300781 "/>
<path style=" stroke:none;fill-rule:nonzero;fill:rgb(100%,100%,100%);fill-opacity:1;" d="M 73.984375 85.320312 L 81.632812 92.96875 C 81.8125 93.148438 81.8125 93.328125 81.632812 93.507812 C 81.542969 93.597656 81.542969 93.597656 81.453125 93.597656 L 65.613281 97.019531 C 64.804688 97.109375 64.085938 96.570312 63.90625 95.757812 C 63.816406 95.308594 63.996094 94.859375 64.265625 94.589844 L 73.441406 85.410156 C 73.621094 85.230469 73.894531 85.140625 73.984375 85.320312 Z M 73.984375 85.320312 "/>
<path style=" stroke:none;fill-rule:nonzero;fill:rgb(100%,42.352941%,21.568627%);fill-opacity:1;" d="M 65.34375 97.917969 C 63.996094 97.917969 63.003906 96.839844 63.003906 95.488281 C 63.003906 94.859375 63.273438 94.230469 63.726562 93.78125 L 72.902344 84.601562 C 73.441406 84.152344 74.164062 84.152344 74.703125 84.601562 L 82.351562 92.25 C 82.890625 92.699219 82.890625 93.507812 82.351562 94.050781 C 82.171875 94.230469 81.992188 94.320312 81.722656 94.410156 L 65.882812 97.828125 C 65.703125 97.828125 65.523438 97.917969 65.34375 97.917969 Z M 73.714844 86.3125 L 64.894531 95.128906 C 64.714844 95.308594 64.625 95.578125 64.804688 95.847656 C 64.894531 96.117188 65.164062 96.207031 65.433594 96.117188 L 80.28125 92.878906 Z M 73.714844 86.3125 "/>
<path style=" stroke:none;fill-rule:nonzero;fill:rgb(100%,100%,100%);fill-opacity:1;" d="M 142.550781 36.730469 C 136.792969 31.152344 127.523438 31.332031 121.945312 37.179688 C 116.367188 43.027344 116.546875 52.207031 122.394531 57.785156 C 127.164062 62.375 134.363281 63.183594 140.03125 59.765625 L 129.773438 49.507812 Z M 142.550781 36.730469 "/>
<path style=" stroke:none;fill-rule:nonzero;fill:rgb(100%,42.352941%,21.568627%);fill-opacity:1;" d="M 132.472656 62.734375 C 123.925781 62.734375 116.996094 55.804688 116.996094 47.257812 C 116.996094 38.710938 123.925781 31.78125 132.472656 31.78125 C 136.429688 31.78125 140.300781 33.308594 143.179688 36.101562 C 143.359375 36.28125 143.449219 36.460938 143.449219 36.730469 C 143.449219 37 143.359375 37.179688 143.179688 37.359375 L 131.03125 49.507812 L 140.570312 59.046875 C 140.929688 59.40625 140.929688 59.945312 140.570312 60.304688 C 140.480469 60.394531 140.480469 60.394531 140.390625 60.484375 C 138.050781 61.925781 135.261719 62.734375 132.472656 62.734375 Z M 132.472656 33.671875 C 124.914062 33.671875 118.792969 39.789062 118.886719 47.347656 C 118.886719 54.90625 125.003906 61.023438 132.5625 60.933594 C 134.632812 60.933594 136.703125 60.484375 138.589844 59.496094 L 129.144531 50.136719 C 128.964844 49.957031 128.871094 49.777344 128.871094 49.507812 C 128.871094 49.238281 128.964844 49.058594 129.144531 48.878906 L 141.199219 36.820312 C 138.769531 34.75 135.710938 33.671875 132.472656 33.671875 Z M 132.472656 33.671875 "/>
<path style=" stroke:none;fill-rule:nonzero;fill:rgb(100%,100%,100%);fill-opacity:1;" d="M 142.820312 37 L 142.640625 36.820312 L 129.773438 49.507812 L 139.941406 59.675781 C 140.929688 59.046875 141.921875 58.324219 142.730469 57.515625 C 148.488281 51.847656 148.488281 42.667969 142.820312 37 Z M 142.820312 37 "/>
<path style=" stroke:none;fill-rule:nonzero;fill:rgb(100%,42.352941%,21.568627%);fill-opacity:1;" d="M 140.03125 60.664062 C 139.761719 60.664062 139.582031 60.574219 139.402344 60.394531 L 129.144531 50.136719 C 128.964844 49.957031 128.871094 49.777344 128.871094 49.507812 C 128.871094 49.238281 128.964844 49.058594 129.144531 48.878906 L 141.921875 36.101562 C 142.28125 35.738281 142.820312 35.738281 143.179688 36.101562 L 143.449219 36.28125 C 149.480469 42.308594 149.480469 52.027344 143.539062 58.144531 C 142.640625 59.046875 141.652344 59.855469 140.570312 60.484375 C 140.300781 60.574219 140.121094 60.664062 140.03125 60.664062 Z M 131.03125 49.507812 L 140.121094 58.59375 C 140.839844 58.144531 141.5625 57.515625 142.101562 56.976562 C 147.230469 51.847656 147.5 43.476562 142.550781 38.078125 Z M 131.03125 49.507812 "/>
<path style=" stroke:none;fill-rule:nonzero;fill:rgb(100%,100%,100%);fill-opacity:1;" d="M 124.015625 59.40625 C 121.855469 57.246094 118.34375 57.246094 116.183594 59.40625 L 82.261719 93.328125 L 87.929688 99 L 123.832031 67.503906 C 126.171875 65.523438 126.351562 62.015625 124.375 59.675781 C 124.195312 59.585938 124.105469 59.496094 124.015625 59.40625 Z M 124.015625 59.40625 "/>
<path style=" stroke:none;fill-rule:nonzero;fill:rgb(100%,42.352941%,21.568627%);fill-opacity:1;" d="M 87.839844 99.898438 C 87.570312 99.898438 87.390625 99.808594 87.210938 99.628906 L 81.542969 93.960938 C 81.179688 93.597656 81.179688 93.058594 81.542969 92.699219 L 115.464844 58.777344 C 117.984375 56.257812 122.035156 56.257812 124.554688 58.777344 C 127.074219 61.296875 127.074219 65.34375 124.554688 67.863281 C 124.464844 67.953125 124.375 68.042969 124.285156 68.132812 L 88.378906 99.628906 C 88.289062 99.808594 88.109375 99.898438 87.839844 99.898438 Z M 83.519531 93.328125 L 87.929688 97.738281 L 123.203125 66.785156 C 125.183594 65.164062 125.363281 62.195312 123.742188 60.214844 C 122.125 58.234375 119.15625 58.054688 117.175781 59.675781 C 117.085938 59.765625 116.996094 59.855469 116.816406 59.945312 Z M 83.519531 93.328125 "/>
<path style=" stroke:none;fill-rule:nonzero;fill:rgb(100%,100%,100%);fill-opacity:1;" d="M 56.257812 131.933594 C 55.894531 132.113281 55.714844 132.472656 55.804688 132.832031 L 57.335938 139.3125 C 57.695312 140.210938 57.15625 141.289062 56.167969 141.5625 C 55.445312 141.832031 54.636719 141.5625 54.1875 141.019531 L 44.289062 131.210938 L 76.59375 98.910156 L 87.75 99.089844 L 95.308594 106.648438 C 93.507812 108.175781 82.621094 118.703125 56.257812 131.933594 Z M 56.257812 131.933594 "/>
<path style=" stroke:none;fill-rule:nonzero;fill:rgb(100%,42.352941%,21.568627%);fill-opacity:1;" d="M 55.535156 142.460938 C 54.816406 142.460938 54.097656 142.191406 53.648438 141.652344 L 43.839844 131.84375 C 43.660156 131.664062 43.570312 131.484375 43.570312 131.210938 C 43.570312 130.941406 43.660156 130.761719 43.839844 130.582031 L 76.140625 98.277344 C 76.324219 98.097656 76.59375 98.007812 76.773438 98.007812 L 87.929688 98.1875 C 88.199219 98.1875 88.378906 98.277344 88.558594 98.457031 L 96.117188 106.015625 C 96.300781 106.195312 96.390625 106.46875 96.390625 106.738281 C 96.390625 107.007812 96.300781 107.1875 96.027344 107.367188 L 95.398438 107.90625 C 85.859375 116.273438 72.902344 124.644531 56.796875 132.652344 L 58.324219 139.042969 C 58.59375 140.210938 58.054688 141.472656 56.976562 142.101562 C 56.4375 142.371094 55.984375 142.460938 55.535156 142.460938 Z M 45.636719 131.210938 L 54.90625 140.390625 C 55.175781 140.839844 55.714844 141.019531 56.167969 140.75 C 56.617188 140.480469 56.796875 139.941406 56.527344 139.492188 L 54.996094 133.011719 C 54.816406 132.203125 55.175781 131.484375 55.894531 131.121094 C 71.824219 123.113281 84.691406 114.835938 94.140625 106.648438 L 87.480469 99.988281 L 77.132812 99.808594 Z M 45.636719 131.210938 "/>
<path style=" stroke:none;fill-rule:nonzero;fill:rgb(100%,100%,100%);fill-opacity:1;" d="M 36.640625 138.953125 L 44.378906 131.210938 L 55.894531 142.730469 L 37.539062 141.472656 C 36.730469 141.378906 36.191406 140.660156 36.28125 139.851562 C 36.28125 139.492188 36.371094 139.132812 36.640625 138.953125 Z M 36.640625 138.953125 "/>
<path style=" stroke:none;fill-rule:nonzero;fill:rgb(100%,42.352941%,21.568627%);fill-opacity:1;" d="M 55.894531 143.539062 L 37.449219 142.28125 C 36.101562 142.191406 35.199219 141.019531 35.289062 139.671875 C 35.378906 139.132812 35.558594 138.589844 36.007812 138.230469 L 43.75 130.492188 C 44.109375 130.132812 44.648438 130.132812 45.007812 130.492188 L 56.527344 142.011719 C 56.796875 142.28125 56.886719 142.640625 56.707031 143 C 56.527344 143.359375 56.257812 143.539062 55.894531 143.539062 Z M 44.378906 132.472656 L 37.269531 139.582031 C 37 139.761719 37 140.210938 37.269531 140.390625 C 37.359375 140.480469 37.449219 140.570312 37.628906 140.570312 L 53.554688 141.652344 Z M 44.378906 132.472656 "/>
<path style=" stroke:none;fill-rule:nonzero;fill:rgb(100%,42.352941%,21.568627%);fill-opacity:1;" d="M 73.441406 103.046875 C 72.902344 103.046875 72.542969 102.597656 72.542969 102.148438 C 72.542969 101.878906 72.632812 101.699219 72.8125 101.519531 L 81.542969 92.789062 C 81.902344 92.429688 82.441406 92.429688 82.800781 92.789062 L 88.46875 98.457031 C 88.738281 98.726562 88.832031 99 88.738281 99.359375 C 88.648438 99.628906 88.378906 99.898438 88.019531 99.988281 L 73.621094 103.046875 C 73.53125 103.046875 73.441406 103.046875 73.441406 103.046875 Z M 82.171875 94.679688 L 76.234375 100.617188 L 85.949219 98.546875 Z M 82.171875 94.679688 "/>
<path style=" stroke:none;fill-rule:nonzero;fill:rgb(100%,100%,100%);fill-opacity:1;" d="M 87.75 99.089844 L 77.851562 101.246094 C 77.132812 101.429688 76.414062 100.976562 76.234375 100.257812 C 76.140625 99.808594 76.234375 99.359375 76.59375 99 L 82.082031 93.507812 Z M 87.75 99.089844 "/>
<path style=" stroke:none;fill-rule:nonzero;fill:rgb(100%,42.352941%,21.568627%);fill-opacity:1;" d="M 77.671875 102.148438 C 76.414062 102.148438 75.421875 101.15625 75.421875 99.898438 C 75.421875 99.269531 75.691406 98.726562 76.050781 98.277344 L 81.542969 92.789062 C 81.902344 92.429688 82.441406 92.429688 82.800781 92.789062 L 88.46875 98.457031 C 88.738281 98.726562 88.832031 99 88.738281 99.359375 C 88.648438 99.628906 88.378906 99.898438 88.019531 99.988281 L 78.121094 102.148438 C 77.941406 102.148438 77.761719 102.148438 77.671875 102.148438 Z M 82.171875 94.679688 L 77.3125 99.539062 C 77.132812 99.71875 77.132812 99.898438 77.222656 100.078125 C 77.3125 100.257812 77.492188 100.347656 77.761719 100.347656 L 86.039062 98.546875 Z M 82.171875 94.679688 "/>
<path style=" stroke:none;fill-rule:nonzero;fill:rgb(100%,42.352941%,21.568627%);fill-opacity:1;" d="M 142.910156 45.636719 C 142.730469 45.097656 142.101562 44.828125 141.5625 45.007812 C 141.019531 45.1875 140.75 45.816406 140.929688 46.359375 C 140.929688 46.449219 141.019531 46.539062 141.019531 46.628906 C 141.5625 47.707031 141.378906 49.058594 140.660156 50.046875 C 140.300781 50.496094 140.390625 51.128906 140.75 51.488281 C 141.199219 51.847656 141.832031 51.757812 142.191406 51.308594 C 143.539062 49.597656 143.808594 47.4375 142.910156 45.636719 Z M 142.910156 45.636719 "/>
</g>
</svg>
