<?xml version="1.0" encoding="UTF-8"?>
<svg xmlns="http://www.w3.org/2000/svg" xmlns:xlink="http://www.w3.org/1999/xlink" width="180px" height="180px" viewBox="0 0 180 180" version="1.1">
<g id="surface1">
<path style=" stroke:none;fill-rule:nonzero;fill:rgb(5.098039%,70.196078%,94.509804%);fill-opacity:0.972549;" d="M 180 90 C 180 139.707031 139.707031 180 90 180 C 40.292969 180 0 139.707031 0 90 C 0 40.292969 40.292969 0 90 0 C 139.707031 0 180 40.292969 180 90 Z M 180 90 "/>
<path style=" stroke:none;fill-rule:nonzero;fill:rgb(100%,100%,100%);fill-opacity:1;" d="M 54.117188 40.785156 C 61.757812 37.738281 68.460938 36.207031 74.59375 36.09375 C 77.816406 36.09375 80.855469 36.441406 83.738281 37.109375 C 88.125 38.230469 94.199219 41.519531 96.511719 42.839844 L 85.527344 80.25 C 79.929688 76.679688 73.171875 73.210938 64.039062 73.117188 L 64.03125 73.117188 C 57.9375 73.117188 51.316406 74.519531 43.644531 77.402344 Z M 71.320312 130.5 C 74.039062 121.316406 80.5625 99.132812 82.507812 92.503906 C 81.097656 91.644531 79.65625 90.785156 78.183594 89.992188 C 72.53125 87.101562 67.039062 85.636719 61.851562 85.636719 C 61.148438 85.636719 60.441406 85.65625 59.726562 85.71875 C 53.109375 86.261719 47.066406 88 43.175781 89.351562 C 42.140625 89.726562 41.089844 90.125 39.996094 90.566406 L 29.355469 127.273438 C 36.667969 124.582031 43.132812 123.273438 49.054688 123.273438 C 58.628906 123.273438 65.578125 126.835938 71.320312 130.5 Z M 136.113281 103.144531 C 129.167969 105.375 122.503906 106.503906 116.273438 106.503906 C 104.910156 106.503906 96.953125 102.839844 91.933594 99.320312 L 81.222656 136.355469 C 84.402344 138.164062 95.089844 143.90625 103.28125 143.90625 C 109.890625 143.90625 117.285156 142.21875 125.882812 138.742188 Z M 150.644531 52.996094 C 143.675781 55.691406 136.878906 57.0625 130.386719 57.0625 C 119.527344 57.0625 111.519531 53.3125 106.332031 49.710938 L 95.4375 87.222656 C 102.753906 91.90625 110.636719 94.28125 118.90625 94.28125 C 125.652344 94.28125 132.636719 92.667969 139.6875 89.484375 L 139.667969 89.226562 L 140.109375 89.117188 Z M 150.644531 52.996094 "/>
</g>
</svg>
